<svg 
xmlns:dc="http://purl.org/dc/elements/1.1/" 
xmlns:cc="http://creativecommons.org/ns#" 
xmlns:rdf="http://www.w3.org/1999/02/22-rdf-syntax-ns#" 
xmlns:svg="http://www.w3.org/2000/svg" 
xmlns="http://www.w3.org/2000/svg" 
xmlns:inkscape="http://www.inkscape.org/namespaces/inkscape" 
version="1.1" x="0px" y="0px" viewBox="0 0 100 125">
<defs>
<style>.cls-1{fill:url(#linear-gradient);}</style>
<linearGradient id="linear-gradient" x1="50" y1="101.02" x2="50" y2="4.05" gradientTransform="matrix(1, 0, 0, -1, 0, 102)" gradientUnits="userSpaceOnUse">
<stop offset="0" stop-color="#70b0df"/>
<stop offset="0.5" stop-color="#1b81c5"/>
<stop offset="1" stop-color="#4a98ce"/>
</linearGradient>
</defs>
<g transform="translate(0,-952.36218)">
<path class="cls-1" d="m 42.400691,957.42763 -1.768489,0.17679 -0.919615,3.71377 -2.652734,-2.72342 -1.69775,0.7074 3.536979,5.23473 -1.69775,6.89716 -3.147911,1.83923 -3.112541,1.8038 -6.897109,-1.9807 -2.758844,-5.65917 -1.450161,1.06109 1.061094,3.67846 -3.678458,-1.06109 -1.096464,1.48553 5.694536,2.75884 1.945339,6.82643 -1.80386,3.18317 -1.803859,3.07722 -6.932479,1.73307 -5.2347287,-3.50155 -0.7073958,1.66232 2.7588435,2.65279 -3.7138278,0.91961 -0.2122187,1.80381 6.2958225,-0.42444 5.12862,4.91649 0,3.64313 0,3.6076 -4.562703,4.3859 -6.8971093,-0.8135 0.1060528,1.7685 4.4212235,1.3441 -3.3247601,3.1832 0.7073958,1.6978 5.8006453,-3.9261 6.048234,1.8392 1.66238,3.254 1.627011,3.1834 -2.617365,7.6399 -5.340838,2.6173 1.061094,1.4148 3.183281,-0.9195 -0.919615,2.7234 1.414792,1.2025 2.652734,-4.8102 7.392286,-2.1222 3.147911,1.8392 3.112542,1.7685 1.839229,7.3569 -3.32476,4.9165 1.62701,0.7074 2.440515,-2.5467 0.848875,3.3955 1.839229,0.2476 -0.424437,-5.9776 5.199359,-5.3762 3.643088,0 3.607719,0 4.95177,5.1641 -0.424437,6.2604 1.768489,-0.1768 0.919615,-3.7139 2.652734,2.7236 1.69775,-0.7074 -3.536979,-5.2348 1.733119,-6.8971 3.147912,-1.8393 3.112541,-1.7685 6.897109,1.9808 2.758843,5.6237 1.414792,-1.061 -1.061094,-3.6784 3.678458,1.0609 1.096464,-1.4854 -5.694536,-2.7589 -1.945339,-6.8264 1.839229,-3.1478 1.76849,-3.1125 8.064312,-2.0162 4.739549,3.1833 0.742766,-1.627 -2.405146,-2.3344 2.688104,-0.6721 0.247589,-1.8038 -5.128617,0.3537 -5.659167,-5.447 0,-3.643 0,-3.57239 5.163989,-4.98723 6.260451,0.42444 -0.212219,-1.76838 -3.713828,-0.91973 2.758844,-2.65268 -0.742766,-1.69774 -5.234726,3.53697 -6.897109,-1.69775 -1.803859,-3.14796 -1.80386,-3.11255 1.980709,-6.89705 5.623796,-2.75884 -1.061094,-1.45011 -3.678458,1.06098 1.061094,-3.67845 -1.450161,-1.09641 -2.758844,5.65917 -6.861739,1.9807 -3.147911,-1.8038 -3.112542,-1.80391 -1.733119,-6.9678 3.501609,-5.19941 -1.62701,-0.7074 -2.652735,2.75885 -0.919614,-3.71389 -1.839229,-0.2121 0.459807,6.29571 -4.95177,5.12867 -3.643089,0 -3.572348,0 -4.987141,-5.16399 0.424438,-6.26039 z m 8.028943,1.27331 c -2.336263,0 -4.175435,1.8776 -4.173636,4.20895 0,2.34006 1.838958,4.24098 4.173636,4.24437 2.338061,0 4.279744,-1.90431 4.279744,-4.24437 0,-2.33135 -1.941683,-4.20895 -4.279744,-4.20895 z m 19.205795,5.16387 c -1.345048,0.0939 -2.597206,0.82443 -3.32476,2.08688 -1.169931,2.02643 -0.53461,4.63078 1.485531,5.80064 2.024861,1.1693 4.665858,0.47039 5.836015,-1.55627 1.165653,-2.01873 0.433447,-4.59615 -1.59164,-5.76533 -0.758736,-0.43802 -1.598115,-0.62205 -2.405146,-0.56592 z m -39.154357,0.1064 c -0.546449,0.0702 -1.085428,0.27367 -1.59164,0.56591 -2.023288,1.16817 -2.723496,3.71185 -1.556271,5.72991 1.169931,2.02677 3.741762,2.7559 5.765276,1.5917 2.024861,-1.16919 2.726201,-3.7741 1.556271,-5.80065 -0.87424,-1.51417 -2.534288,-2.29887 -4.173636,-2.08687 z m 11.141484,4.6335 4.209005,6.18965 -0.03531,5.09325 9.514473,0 0,-5.09325 4.138265,-6.18965 0.530547,7.46296 -2.581994,4.35043 8.27653,4.77498 2.546625,-4.38585 6.68489,-3.25402 -3.28939,6.68483 -4.421224,2.51131 4.774922,8.24114 4.385853,-2.54666 7.463026,0.49529 -6.189713,4.20898 -5.09325,-0.0702 0,9.54987 5.09325,0 6.897109,4.6334 -8.807078,0.6367 -4.385854,-2.582 -4.774921,8.2765 4.421224,2.5113 3.28939,6.7202 -6.75563,-3.2894 -2.475885,-4.4211 -8.276531,4.7748 2.546625,4.3859 -0.495177,7.4276 -4.173635,-6.1897 0.03531,-5.0579 -9.549843,0 0,5.0579 -4.421223,6.5789 -0.565917,-7.9229 2.581995,-4.3858 -8.241161,-4.775 -2.546625,4.4212 -6.932479,3.3955 3.926047,-7.1446 4.562703,-2.2637 -4.350484,-8.4887 -4.527333,2.2989 -6.82637,-0.8135 5.694536,-3.82 5.09325,0.035 0,-9.54981 -5.09325,0 -6.189713,-4.13824 7.463026,-0.53061 4.350484,2.58198 4.774921,-8.24114 -4.385854,-2.54663 -3.28939,-6.68483 6.72026,3.25402 2.511255,4.42117 8.241161,-4.77498 -2.546625,-4.38586 0.495177,-7.42754 z m 42.903554,9.4791 c -0.80668,-0.0555 -1.648357,0.12824 -2.405145,0.56592 -2.026661,1.17009 -2.720792,3.74161 -1.556271,5.76521 1.169036,2.02485 3.773985,2.72614 5.800645,1.55628 2.018783,-1.16568 2.689926,-3.74037 1.520901,-5.76522 -0.730078,-1.2646 -2.015659,-2.02938 -3.36013,-2.12219 z m -68.051474,0.14148 c -1.351771,0.10526 -2.629486,0.89188 -3.36013,2.1575 -1.168131,2.02338 -0.498788,4.5657 1.520901,5.7299 2.026661,1.16998 4.630715,0.49937 5.800645,-1.52084 1.169252,-2.02496 0.47039,-4.63056 -1.55627,-5.80064 -0.757038,-0.43712 -1.594086,-0.6293 -2.405146,-0.56592 z m 73.038614,19.31182 c -2.340087,0 -4.241001,1.87443 -4.244374,4.20909 0,2.3381 1.904287,4.2797 4.244374,4.2797 2.331303,0 4.209003,-1.9416 4.209003,-4.2797 0,-2.33624 -1.8777,-4.2109 -4.209003,-4.20909 z m -77.919645,0.17691 c -2.3310787,0 -4.2090051,1.90623 -4.2090051,4.24438 0,2.3362 1.8779264,4.2109 4.2090051,4.2089 2.340314,0 4.240991,-1.8743 4.244375,-4.2089 0,-2.33815 -1.904061,-4.24438 -4.244375,-4.24438 z m 4.315114,19.02898 c -0.551361,0.04 -1.07085,0.1935 -1.59164,0.4597 -2.075522,1.0618 -2.868416,3.6131 -1.803859,5.6946 1.063878,2.08 3.54918,2.9025 5.623796,1.8392 2.083411,-1.0651 2.934878,-3.6142 1.874599,-5.6946 -0.798248,-1.5611 -2.448823,-2.416 -4.102896,-2.2989 z m 67.485558,0.8842 c -1.356683,0.086 -2.66429,0.8243 -3.3955,2.0868 -1.169251,2.0249 -0.47039,4.6305 1.556271,5.8007 2.018783,1.1656 4.63162,0.4688 5.800645,-1.5563 1.168131,-2.0233 0.463644,-4.6012 -1.55627,-5.7653 -0.759913,-0.4387 -1.591132,-0.6176 -2.405146,-0.5659 z m -53.479121,14.2893 c -1.364312,0.097 -2.664155,0.8558 -3.3955,2.1222 -1.165652,2.0191 -0.43322,4.5964 1.591641,5.7654 2.023287,1.1681 4.565826,0.4637 5.729905,-1.5563 1.170158,-2.0264 0.499467,-4.6302 -1.5209,-5.8006 -0.759234,-0.4384 -1.586559,-0.5893 -2.405146,-0.5307 z m 39.012877,0 c -0.544287,0.065 -1.085756,0.2395 -1.59164,0.5307 -2.024861,1.1689 -2.726202,3.8094 -1.556271,5.8359 1.165652,2.0189 3.775784,2.6546 5.800645,1.4857 2.023288,-1.1682 2.687901,-3.712 1.520901,-5.7301 -0.877623,-1.5199 -2.540784,-2.3155 -4.173635,-2.1222 z m -18.922837,5.2348 c -2.338062,0 -4.244375,1.9396 -4.244375,4.2798 0,2.3312 1.906313,4.1736 4.244375,4.1736 2.336262,0 4.210805,-1.8424 4.209005,-4.1736 0,-2.3402 -1.874327,-4.2763 -4.209005,-4.2798 z" fill="#000000" fill-opacity="1"/>
</g>
</svg>